<svg xmlns="http://www.w3.org/2000/svg" width="18.311" height="18.313" viewBox="20 15.686 18.311 18.313"><g data-name="fa-solid fa-magnifying-glass"><g data-name="グループ 47495" transform="translate(20 15.686)" clip-path="url(&quot;#a&quot;)"><path d="m17.893 15.869-4.281-4.281a7.436 7.436 0 0 0 1.197-5.175C14.37 3.14 11.688.476 8.412.062a7.445 7.445 0 0 0-8.35 8.35c.414 3.277 3.078 5.962 6.351 6.398a7.435 7.435 0 0 0 5.176-1.197l4.28 4.281a1.43 1.43 0 1 0 2.024-2.025M2.829 7.439a4.583 4.583 0 0 1 4.578-4.578 4.583 4.583 0 0 1 4.578 4.578 4.583 4.583 0 0 1-4.578 4.578 4.583 4.583 0 0 1-4.578-4.578" fill="#7b7b7b" fill-rule="evenodd" data-name="パス 100243"/></g></g><defs><clipPath id="a"><path d="M0 0h18.311v18.313H0V0z" data-name="長方形 6807"/></clipPath></defs></svg>