<svg xmlns="http://www.w3.org/2000/svg" width="29.218" height="29.221"><path d="m28.55 25.32-6.83-6.83c1.553-2.307 2.319-5.188 1.909-8.258C22.929 5.01 18.649.76 13.422.098A11.88 11.88 0 0 0 .098 13.422c.662 5.23 4.913 9.513 10.135 10.209 3.07.41 5.952-.356 8.258-1.91l6.83 6.831a2.283 2.283 0 0 0 3.229 0 2.29 2.29 0 0 0 0-3.232M4.514 11.87c0-4.028 3.277-7.305 7.304-7.305 4.028 0 7.305 3.277 7.305 7.305 0 4.027-3.277 7.304-7.305 7.304-4.027 0-7.304-3.275-7.304-7.304" fill="#42a7c2" fill-rule="evenodd" data-name="パス 100243"/></svg>