<svg xmlns="http://www.w3.org/2000/svg" width="36" height="41.513" viewBox="755 21.833 36 41.513"><g data-name="icon"><path d="M771 63V49h8v14h-8z" fill="#42a7c2" fill-rule="evenodd" data-name="長方形 6931"/><path d="M783 63V43h8v20h-8z" fill="#42a7c2" fill-rule="evenodd" data-name="長方形 6932"/><path d="M760 63.346V55.55h8v7.797h-8Z" fill="#42a7c2" fill-rule="evenodd" data-name="パス 100969"/><g data-name="グループ 47690"><g data-name="グループ 47689" transform="translate(755 21.833)" clip-path="url(&quot;#a&quot;)"><path d="m28.539 12.83-3.491-4.22L17.922 0l-5.49 6.633-5.128 6.197h5.53c.033 1.61-.28 3.251-1.005 4.81C9.69 22.239 4.767 24.64 0 23.794c8.258 3.573 17.906-.048 21.723-8.257.44-.945.771-1.835 1.022-2.706h5.794Z" fill="#2c9dbc" fill-rule="evenodd" data-name="パス 100972"/></g></g></g><defs><clipPath id="a"><path d="M0 0h28.539v25.167H0V0z" data-name="長方形 6937"/></clipPath></defs></svg>