<svg xmlns="http://www.w3.org/2000/svg" width="17.875" height="15.889"><g data-name="グループ 47425" clip-path="url(&quot;#a&quot;)"><path d="M17.87 7.93c0 .558-.466.995-.994.995h-.993l.022 4.969c0 .087-.006.167-.016.251v.503c0 .686-.555 1.241-1.241 1.241h-.497c-.034 0-.068-.028-.102-.003-.043-.025-.087.003-.13.003h-1.754a1.241 1.241 0 0 1-1.241-1.241v-2.731a.992.992 0 0 0-.993-.993H7.945a.992.992 0 0 0-.993.993v2.731c0 .686-.556 1.241-1.242 1.241H3.975c-.046 0-.093-.003-.14-.006-.036.003-.074.006-.11.006h-.497a1.241 1.241 0 0 1-1.242-1.241v-3.476c0-.028.001-.059.003-.087v-2.16H.995A.984.984 0 0 1 0 7.93c0-.28.093-.527.31-.745L8.268.25C8.485.03 8.733 0 8.95 0c.217 0 .466.062.655.218l7.923 6.966c.248.218.375.466.341.745" fill="#7b7b7b" fill-rule="evenodd" data-name="パス 100020"/></g><defs><clipPath id="a"><path d="M0 0h17.875v15.89H0V0z" data-name="長方形 6801"/></clipPath></defs></svg>