<svg xmlns="http://www.w3.org/2000/svg" width="20" height="15"><path d="M0 2.5A2.5 2.5 0 0 1 2.5 0h15C18.879 0 20 1.12 20 2.5v10c0 1.379-1.121 2.5-2.5 2.5h-15C1.12 15 0 13.879 0 12.5v-10Zm1.875 0v.863l6.738 5.532a2.18 2.18 0 0 0 2.774 0l6.738-5.532v-.898c0-.309-.281-.625-.625-.625h-15c-.345 0-.625.316-.625.625V2.5Zm0 3.29v6.71c0 .344.28.625.625.625h15a.627.627 0 0 0 .625-.625V5.79l-5.547 4.554c-1.5 1.23-3.656 1.23-5.191 0L1.875 5.789Z" fill="#afafaf" fill-rule="evenodd" data-name="パス 100242"/></svg>